<svg width="26" height="26" viewBox="0 0 26 26" fill="none" xmlns="http://www.w3.org/2000/svg">
<rect width="26" height="26" rx="13" fill="white"/>
<path d="M19.6667 16.28V18.28C19.6674 18.4657 19.6294 18.6494 19.555 18.8196C19.4806 18.9897 19.3715 19.1424 19.2347 19.2679C19.0979 19.3934 18.9364 19.489 18.7605 19.5485C18.5846 19.608 18.3983 19.63 18.2133 19.6133C16.1619 19.3904 14.1913 18.6894 12.46 17.5667C10.8492 16.5431 9.48356 15.1774 8.46001 13.5667C7.33333 11.8275 6.63217 9.84733 6.41334 7.78667C6.39668 7.60231 6.41859 7.41651 6.47767 7.24108C6.53676 7.06566 6.63172 6.90446 6.75652 6.76775C6.88131 6.63103 7.03321 6.5218 7.20253 6.44701C7.37186 6.37222 7.5549 6.33351 7.74001 6.33333H9.74001C10.0635 6.33015 10.3772 6.44472 10.6225 6.65569C10.8678 6.86666 11.0281 7.15963 11.0733 7.48C11.1578 8.12004 11.3143 8.74848 11.54 9.35333C11.6297 9.59195 11.6491 9.85127 11.5959 10.1006C11.5428 10.3499 11.4192 10.5787 11.24 10.76L10.3933 11.6067C11.3424 13.2757 12.7243 14.6576 14.3933 15.6067L15.24 14.76C15.4213 14.5808 15.6501 14.4572 15.8994 14.4041C16.1487 14.3509 16.4081 14.3703 16.6467 14.46C17.2515 14.6857 17.88 14.8423 18.52 14.9267C18.8439 14.9724 19.1396 15.1355 19.351 15.385C19.5624 15.6345 19.6748 15.953 19.6667 16.28Z" stroke="#423C3A" stroke-width="0.5" stroke-linecap="round" stroke-linejoin="round"/>
</svg>
