<svg width="44" height="44" viewBox="0 0 44 44" fill="none" xmlns="http://www.w3.org/2000/svg">
<rect width="44" height="44" rx="22" fill="white"/>
<path d="M32 26.9201V29.9201C32.0011 30.1986 31.9441 30.4743 31.8325 30.7294C31.7209 30.9846 31.5573 31.2137 31.3521 31.402C31.1468 31.5902 30.9046 31.7336 30.6407 31.8228C30.3769 31.912 30.0974 31.9452 29.82 31.9201C26.7428 31.5857 23.787 30.5342 21.19 28.8501C18.7738 27.3148 16.7253 25.2663 15.19 22.8501C13.5 20.2413 12.4482 17.2711 12.12 14.1801C12.095 13.9036 12.1279 13.6249 12.2165 13.3617C12.3051 13.0986 12.4476 12.8568 12.6348 12.6517C12.822 12.4466 13.0498 12.2828 13.3038 12.1706C13.5578 12.0584 13.8323 12.0004 14.11 12.0001H17.11C17.5953 11.9953 18.0658 12.1672 18.4338 12.4836C18.8017 12.8001 19.0421 13.2395 19.11 13.7201C19.2366 14.6802 19.4714 15.6228 19.81 16.5301C19.9445 16.888 19.9737 17.277 19.8939 17.651C19.8141 18.0249 19.6289 18.3682 19.36 18.6401L18.09 19.9101C19.5135 22.4136 21.5864 24.4865 24.09 25.9101L25.36 24.6401C25.6319 24.3712 25.9751 24.1859 26.3491 24.1062C26.7231 24.0264 27.1121 24.0556 27.47 24.1901C28.3773 24.5286 29.3199 24.7635 30.28 24.8901C30.7658 24.9586 31.2094 25.2033 31.5265 25.5776C31.8437 25.9519 32.0122 26.4297 32 26.9201Z" stroke="#423C3A" stroke-linecap="round" stroke-linejoin="round"/>
</svg>
