<svg width="26" height="26" viewBox="0 0 26 26" fill="none" xmlns="http://www.w3.org/2000/svg">
<rect width="26" height="26" rx="13" fill="white"/>
<path d="M19.2904 7.17297C19.1871 7.0837 19.0613 7.02442 18.9267 7.00156C18.7921 6.97869 18.6538 6.99312 18.5268 7.04327L6.99195 11.5748C6.84116 11.6341 6.71361 11.7405 6.62838 11.8783C6.54315 12.0161 6.50482 12.1777 6.51914 12.3391C6.53346 12.5005 6.59964 12.6529 6.7078 12.7735C6.81595 12.8941 6.96025 12.9765 7.11911 13.0082L10.25 13.6345V17.499C10.2484 17.6477 10.2918 17.7934 10.3744 17.917C10.457 18.0406 10.575 18.1364 10.713 18.1919C10.8054 18.2306 10.9046 18.2506 11.0048 18.2509C11.1027 18.2506 11.1996 18.2309 11.2898 18.1928C11.38 18.1548 11.4618 18.0992 11.5303 18.0293L13.3176 16.242L15.9547 18.5627C16.0906 18.6834 16.266 18.7501 16.4477 18.7503C16.5267 18.7502 16.6052 18.7378 16.6804 18.7134C16.8043 18.6741 16.9158 18.603 17.0037 18.5071C17.0915 18.4113 17.1528 18.2941 17.1812 18.1672L19.532 7.90887C19.5627 7.77583 19.5564 7.63693 19.5138 7.50722C19.4712 7.3775 19.394 7.26191 19.2904 7.17297ZM7.01718 12.2949C7.01097 12.2409 7.02314 12.1864 7.05175 12.1402C7.08035 12.0939 7.12371 12.0587 7.17481 12.0402L17.7483 7.88627L10.442 13.163L7.21717 12.518C7.1636 12.5087 7.11472 12.4817 7.07843 12.4412C7.04214 12.4007 7.02056 12.3492 7.01718 12.2949ZM11.1768 17.6758C11.1418 17.7107 11.0973 17.7346 11.0488 17.7442C11.0003 17.7538 10.95 17.7489 10.9043 17.73C10.8586 17.7111 10.8196 17.679 10.7921 17.6379C10.7647 17.5968 10.75 17.5485 10.75 17.499V13.9825L12.9415 15.9111L11.1768 17.6758ZM19.0447 7.79718L16.6938 18.0555C16.6841 18.0977 16.6637 18.1367 16.6344 18.1686C16.6051 18.2005 16.5681 18.2243 16.5269 18.2376C16.4856 18.2508 16.4417 18.2532 16.3993 18.2444C16.3569 18.2356 16.3175 18.2159 16.285 18.1873L10.9003 13.4488L19.0043 7.59598C19.0256 7.62437 19.0403 7.65718 19.0473 7.692C19.0543 7.72681 19.0534 7.76275 19.0447 7.79718Z" fill="#423C3A"/>
</svg>
