<svg width="44" height="44" viewBox="0 0 44 44" fill="none" xmlns="http://www.w3.org/2000/svg">
<rect width="44" height="44" rx="22" fill="white"/>
<path d="M31.4356 13.2593C31.2806 13.1254 31.0919 13.0365 30.89 13.0022C30.6881 12.9679 30.4806 12.9895 30.2901 13.0647L12.9879 19.8621C12.7617 19.9509 12.5704 20.1106 12.4426 20.3173C12.3147 20.5239 12.2572 20.7665 12.2787 21.0085C12.3002 21.2506 12.3994 21.4792 12.5617 21.6601C12.7239 21.841 12.9404 21.9645 13.1787 22.0122L17.875 22.9515V28.7484C17.8726 28.9714 17.9377 29.1899 18.0616 29.3754C18.1855 29.5608 18.3625 29.7045 18.5695 29.7877C18.7081 29.8457 18.8568 29.8758 19.0071 29.8762C19.154 29.8757 19.2993 29.8461 19.4347 29.7891C19.57 29.732 19.6926 29.6486 19.7955 29.5438L22.4764 26.8629L26.432 30.3439C26.6358 30.5249 26.8989 30.625 27.1715 30.6253C27.29 30.6252 27.4078 30.6065 27.5205 30.5699C27.7065 30.5109 27.8737 30.4043 28.0055 30.2605C28.1373 30.1167 28.2291 29.9409 28.2718 29.7506L31.7981 14.3631C31.8441 14.1636 31.8347 13.9552 31.7708 13.7607C31.7069 13.5661 31.5909 13.3927 31.4356 13.2593ZM13.0258 20.9422C13.0164 20.8612 13.0347 20.7794 13.0776 20.7101C13.1205 20.6407 13.1855 20.5879 13.2622 20.5601L29.1224 14.3292L18.163 22.2443L13.3257 21.2768C13.2454 21.2629 13.1721 21.2223 13.1176 21.1616C13.0632 21.1009 13.0308 21.0236 13.0258 20.9422ZM19.2651 29.0135C19.2127 29.0659 19.1459 29.1017 19.0731 29.1161C19.0004 29.1306 18.925 29.1232 18.8565 29.0948C18.788 29.0664 18.7294 29.0184 18.6882 28.9567C18.647 28.895 18.625 28.8225 18.625 28.7484V23.4736L21.9122 26.3664L19.2651 29.0135ZM31.067 14.1956L27.5407 29.5831C27.5262 29.6464 27.4955 29.7048 27.4516 29.7527C27.4077 29.8006 27.3521 29.8362 27.2903 29.8562C27.2284 29.8761 27.1625 29.8796 27.0989 29.8664C27.0353 29.8532 26.9762 29.8237 26.9275 29.7808L18.8505 22.673L31.0064 13.8938C31.0384 13.9364 31.0604 13.9856 31.0709 14.0378C31.0814 14.0901 31.0801 14.144 31.067 14.1956Z" fill="#423C3A"/>
</svg>
