<svg width="26" height="26" viewBox="0 0 26 26" fill="none" xmlns="http://www.w3.org/2000/svg">
<rect width="26" height="26" rx="13" fill="white"/>
<path d="M20.0945 17.7559H18.4038C17.8727 17.7559 17.598 17.4505 17.0994 16.8959C16.8936 16.6669 16.6374 16.3818 16.2993 16.0438C15.2195 15.0027 14.8583 15.0027 14.7396 15.0027C14.519 15.0027 14.473 15.0027 14.473 15.4066V16.9228C14.473 17.538 14.1108 17.7559 13.0896 17.7559C11.1521 17.7559 9.17048 16.5713 7.78832 14.587C5.56912 11.4758 5.08826 9.2613 5.08826 8.88002C5.08826 8.58181 5.21927 8.22617 5.84344 8.22617H7.53436C8.08143 8.22617 8.28691 8.5105 8.45692 9.00173C9.34383 11.585 10.6923 13.3978 11.0853 13.3978C11.1563 13.3978 11.2234 13.3978 11.2234 12.9283V10.4385C11.1879 9.79608 10.9687 9.52456 10.7926 9.30661C10.6686 9.15311 10.5514 9.00822 10.5514 8.79045C10.5514 8.51296 10.7782 8.22617 11.1573 8.22617H13.8144C14.4048 8.22617 14.4731 8.68103 14.4731 9.02333V12.3732C14.4731 12.6029 14.5479 12.676 14.5664 12.6818C14.6932 12.6812 14.8263 12.6112 15.2243 12.213C16.4008 10.8978 17.2554 8.83418 17.264 8.81346C17.4314 8.42304 17.7331 8.22634 18.162 8.22634H19.8529C20.1479 8.22634 20.3576 8.30695 20.4762 8.46625C20.588 8.61658 20.6075 8.8189 20.5343 9.06759C20.3072 10.0818 18.317 12.8929 18.2324 13.0123C18.0761 13.2629 18.0425 13.3168 18.2278 13.555C18.3116 13.6719 18.5025 13.859 18.7048 14.0571C18.9287 14.2764 19.1827 14.5253 19.3878 14.7677C20.2691 15.7589 20.7062 16.3702 20.8473 16.8088C20.9488 17.1565 20.8654 17.3685 20.7774 17.4855C20.6846 17.6088 20.4909 17.7559 20.0945 17.7559ZM14.7397 14.6516C15.029 14.6516 15.496 14.7814 16.5455 15.7933C16.8924 16.1402 17.1521 16.4291 17.3608 16.6611C17.8687 17.2261 18.0462 17.4047 18.4038 17.4047H20.0945C20.2905 17.4047 20.4333 17.3583 20.4962 17.2745C20.5682 17.1785 20.5441 17.0239 20.5113 16.9115C20.3545 16.424 19.6867 15.6323 19.1225 14.9976C18.9252 14.7647 18.6776 14.522 18.4591 14.3079C18.2361 14.0896 18.0438 13.9011 17.9463 13.7647C17.6374 13.3678 17.7376 13.1417 17.9403 12.8174C17.9665 12.7799 19.9879 9.92499 20.1929 8.98592L20.1962 8.97292C20.225 8.87703 20.248 8.7476 20.1946 8.67577C20.1472 8.61237 20.0262 8.57742 19.8532 8.57742H18.1623C17.8753 8.57742 17.6983 8.6921 17.588 8.94921C17.5536 9.03334 16.7036 11.086 15.4795 12.4543C15.0782 12.8563 14.8528 13.0325 14.5606 13.0325C14.3493 13.0325 14.1221 12.8261 14.1221 12.3734V9.02333C14.1221 8.60745 14.006 8.57742 13.8145 8.57742H11.1575C10.9819 8.57742 10.9028 8.70193 10.9028 8.79045C10.9028 8.88002 10.9557 8.94957 11.0658 9.08585C11.2516 9.31592 11.5325 9.66348 11.5744 10.4289L11.5746 12.9282C11.5746 13.3435 11.5369 13.7489 11.0853 13.7489C10.3012 13.7489 8.87543 11.3031 8.12481 9.11623C7.97483 8.68332 7.85892 8.57742 7.53436 8.57742H5.84362C5.43968 8.57742 5.43968 8.74531 5.43968 8.88002C5.43968 9.1777 5.89789 11.3317 8.07581 14.3846C9.39335 16.2763 11.2673 17.4047 13.0899 17.4047C14.1221 17.4047 14.1221 17.192 14.1221 16.9228V15.4066C14.1219 14.9284 14.223 14.6516 14.7397 14.6516Z" fill="black"/>
</svg>
