<svg width="44" height="44" viewBox="0 0 44 44" fill="none" xmlns="http://www.w3.org/2000/svg">
<rect width="44" height="44" rx="22" fill="white"/>
<path fill-rule="evenodd" clip-rule="evenodd" d="M31.3954 24.2733C31.9288 24.779 32.4733 25.3036 32.9566 25.8838C33.2408 26.2246 33.5651 26.6385 33.8152 27.123C34.0355 27.5515 34.0398 28.032 33.8267 28.4086C33.6546 28.7126 33.3624 28.8997 33.025 28.922L33.0136 28.9226L33.0033 28.9227H29.6176C28.7105 28.9924 27.9207 28.6716 27.2039 27.9422C26.8763 27.6092 26.5628 27.2581 26.2596 26.9184L26.2491 26.9067C26.1121 26.7533 25.9752 26.5999 25.8367 26.4481C25.6859 26.2842 25.5019 26.0966 25.2874 25.9565C25.1677 25.879 25.0563 25.8377 24.9665 25.8377C24.9199 25.8377 24.778 25.8377 24.6258 26.1141C24.3846 26.5528 24.331 27.0672 24.309 27.5577C24.2628 28.5175 23.897 28.8743 22.9113 28.9223C22.7108 28.9317 22.5119 28.9364 22.3196 28.9364C20.6232 28.9364 19.1667 28.5749 17.867 27.8314C16.6334 27.1271 15.5604 26.124 14.4907 24.6747C12.964 22.6036 11.6244 20.2153 10.1469 16.9306C9.96228 16.5206 9.95165 16.1819 10.1152 15.9241C10.2785 15.6664 10.5889 15.5319 11.0376 15.524C11.5617 15.5131 12.0984 15.5077 12.6774 15.5077C13.2073 15.5077 13.7628 15.5122 14.3756 15.5215C14.9333 15.5309 15.3684 15.8499 15.6014 16.4196C16.2297 17.9672 16.9551 19.3128 17.8194 20.5344C17.9036 20.6535 17.9838 20.7652 18.0642 20.8686L18.0654 20.8701L18.0866 20.8972L18.0886 20.8997C18.2431 21.0949 18.4001 21.2597 18.5893 21.3893C18.7153 21.4761 18.7845 21.4855 18.8084 21.4855C18.8836 21.4855 18.9574 21.3246 18.9782 21.2753C19.059 21.0848 19.1111 20.8651 19.1408 20.589L19.1413 20.5835L19.1439 20.5587L19.1441 20.5571C19.146 20.5373 19.1479 20.5172 19.1496 20.4969C19.2482 19.3452 19.2318 18.3936 19.0978 17.502C19.0211 16.9886 18.7504 16.6948 18.27 16.6034C18.1732 16.5853 17.876 16.5295 17.7844 16.2688C17.6942 16.0118 17.8762 15.8001 17.9637 15.6983C18.2877 15.3177 18.6324 15.0635 19.258 15.0635H23.0979C23.1192 15.0635 23.1405 15.0655 23.1614 15.0697C23.9476 15.2237 24.1557 15.6556 24.2497 16.3494C24.2516 16.3641 24.2526 16.3787 24.2526 16.3935L24.2535 17.8765L24.2551 20.5123L24.2552 20.6617L24.2551 20.6709C24.2491 20.891 24.3803 21.3642 24.5758 21.4403C24.5933 21.4458 24.6086 21.4485 24.6228 21.4485C24.7151 21.4485 24.8413 21.3129 24.9528 21.1931L24.9927 21.1505L25.0361 21.1041C25.8651 20.2102 26.4666 19.1639 26.9473 18.2146C27.0003 18.11 27.0518 18.0065 27.102 17.9046C27.36 17.3809 27.5861 16.8301 27.792 16.3128C28.0076 15.7715 28.3839 15.5083 28.9422 15.5083L28.9728 15.5086L32.6656 15.5112C32.7866 15.5112 32.9169 15.5143 33.0482 15.5365C33.3136 15.5815 33.6887 15.6778 33.882 15.9935C34.0755 16.3095 33.9909 16.6874 33.9103 16.9442C33.6 17.9172 33.017 18.7238 32.4533 19.5039L32.3923 19.5883C32.0975 19.9956 31.79 20.4016 31.4926 20.7943L31.4917 20.7955C31.1942 21.1881 30.8873 21.5933 30.594 21.9988C30.5639 22.0405 30.5339 22.0821 30.5041 22.1238C30.0415 22.7727 30.0628 22.9874 30.6471 23.5586C30.8497 23.7566 31.0599 23.9556 31.2633 24.1482L31.2659 24.1507L31.3954 24.2733ZM32.1882 26.5239C31.7098 25.9495 31.1596 25.4271 30.5784 24.8769L30.5729 24.8716C30.3713 24.6807 30.1565 24.4773 29.9484 24.2741C29.6853 24.0168 29.2492 23.5845 29.1879 22.9694C29.1256 22.3436 29.4795 21.8384 29.6899 21.5433L29.6909 21.5419C29.855 21.3125 30.0237 21.0834 30.1921 20.858C30.3601 20.6331 30.5278 20.4117 30.6904 20.1972L30.6946 20.1917C30.9934 19.7972 31.2945 19.3996 31.582 19.0022L31.6423 18.9188C32.2199 18.1197 32.7026 17.4385 32.9569 16.6426C32.9684 16.6058 32.9775 16.5731 32.9846 16.5434C32.9542 16.5359 32.9201 16.5291 32.8811 16.5225C32.8365 16.5149 32.7757 16.5112 32.6656 16.5112L28.9641 16.5086L28.9388 16.5083C28.8796 16.5086 28.8454 16.5156 28.8294 16.5202C28.8212 16.5225 28.8167 16.5244 28.8148 16.5253L28.8117 16.527C28.8117 16.527 28.8093 16.5287 28.806 16.532C28.8027 16.5353 28.7968 16.5416 28.789 16.5522C28.7732 16.5736 28.7485 16.6138 28.7211 16.6826C28.5139 17.2034 28.2755 17.7854 27.999 18.3466C27.4964 19.3673 26.8238 20.623 25.8366 21.7107C25.7988 21.7524 25.7604 21.7939 25.7216 21.8351L25.7206 21.8362L25.6848 21.8743L25.6837 21.8756L25.6757 21.8842C25.6267 21.9369 25.5329 22.038 25.4314 22.125C25.3753 22.1731 25.289 22.2416 25.179 22.3019C25.0774 22.3578 24.881 22.4485 24.6228 22.4485C24.4808 22.4485 24.3619 22.4213 24.2759 22.3943L24.244 22.3843L24.2127 22.3721C23.8899 22.2463 23.703 22.0103 23.6149 21.8803C23.5144 21.7323 23.4462 21.578 23.4001 21.4513C23.315 21.2172 23.2498 20.9206 23.2552 20.6539L23.2547 19.7541L23.2535 17.751L23.2527 16.4409C23.2351 16.3217 23.2165 16.2404 23.1982 16.1835C23.1853 16.1432 23.175 16.1227 23.1703 16.1147L23.1648 16.1115C23.1488 16.1026 23.1078 16.0832 23.0263 16.0635H19.4115C19.4666 16.1106 19.5198 16.1616 19.5708 16.2169C19.8779 16.5503 20.0273 16.956 20.0868 17.3535C20.2349 18.3405 20.2494 19.3734 20.146 20.5821C20.1129 20.968 20.0426 21.3266 19.8991 21.6651C19.8805 21.7092 19.8293 21.8264 19.7496 21.9477C19.711 22.0066 19.6386 22.1087 19.5285 22.2067C19.4329 22.2917 19.1842 22.4852 18.8092 22.4855C18.5196 22.4855 18.2543 22.3727 18.023 22.2136C17.5577 21.8944 17.2472 21.4576 17.0026 21.1113C16.0896 19.8209 15.329 18.4069 14.6754 16.797C14.5739 16.5496 14.466 16.5233 14.3594 16.5214C13.7514 16.5122 13.2012 16.5077 12.6774 16.5077C12.1055 16.5077 11.5763 16.513 11.0604 16.5237C12.5186 19.7653 13.8243 22.0852 15.2953 24.0809C16.3037 25.4471 17.2779 26.3436 18.3628 26.963C19.4921 27.609 20.7738 27.9364 22.3196 27.9364C22.4955 27.9364 22.6784 27.9321 22.8634 27.9235C23.1032 27.9117 23.2147 27.8798 23.2573 27.8634C23.2725 27.8223 23.2999 27.7209 23.3101 27.5111C23.3327 27.0081 23.3884 26.2892 23.7494 25.6324C23.8871 25.3823 24.0767 25.1545 24.3388 25.0045C24.6216 24.8425 24.875 24.8377 24.9665 24.8377C25.3324 24.8377 25.6372 24.9917 25.831 25.1172L25.8339 25.1191C26.1591 25.3314 26.4132 25.5977 26.5726 25.771L26.5757 25.7743C26.7177 25.9301 26.8576 26.0868 26.9937 26.2391L27.0055 26.2524C27.3113 26.5949 27.609 26.928 27.9168 27.241C28.4558 27.7893 28.9666 27.9698 29.541 27.9257L29.5793 27.9227H32.9523L32.9533 27.9212L32.9564 27.916C32.9825 27.8698 33.0127 27.7496 32.9262 27.5811C32.7279 27.197 32.4608 26.8508 32.1882 26.5239Z" fill="#423C3A"/>
</svg>
